# Blender v2.77 (sub 0) OBJ File: ''
# www.blender.org
o Cube_Cube.001
v -1.136424 0.065178 0.884639
v -1.136424 2.065178 0.884639
v -1.136424 0.065178 -1.115361
v -1.136424 2.065178 -1.115361
v 11.001560 0.065178 0.884639
v 11.001560 2.065178 0.884639
v 11.001560 0.065178 -1.115361
v 11.001560 2.065178 -1.115361
v 1.060158 0.038524 2.593271
v 1.060158 2.062253 2.612458
v 1.060158 0.038524 0.864993
v 1.060158 2.062253 0.884180
v 3.060159 0.038524 2.593271
v 3.060159 2.062253 2.612458
v 3.060159 2.062253 0.884180
v 3.062720 2.065178 0.884639
v 1.058758 2.065178 0.884639
v 1.043137 0.065178 0.884639
v 3.067438 0.065178 0.884639
v 3.060159 0.038524 2.593271
v 3.060159 2.062253 2.612458
v 3.060159 0.038524 0.864993
v 3.060159 2.062253 0.884180
vt 0.9999 0.0001
vt 0.0001 0.9999
vt 0.0001 0.0001
vt 1.0000 0.0000
vt 0.0000 0.1648
vt 0.0000 0.0000
vt 0.0001 0.9999
vt 0.9999 0.0001
vt 0.9999 0.9999
vt 0.9999 0.2520
vt 0.6127 0.0001
vt 0.9999 0.0001
vt 0.8473 0.9922
vt 0.0004 0.0078
vt 0.8476 0.0001
vt 0.0000 0.1648
vt 0.0000 0.0000
vt 0.1809 0.0000
vt 0.0001 0.9919
vt 0.8470 0.0081
vt 0.8470 0.9999
vt 0.0001 0.9999
vt 0.9881 0.0001
vt 0.9881 0.9999
vt 0.9999 0.8641
vt 0.0001 0.0001
vt 0.9999 0.0001
vt 0.2746 0.0001
vt 0.0001 0.2480
vt 0.0001 0.0001
vt 0.9999 0.9999
vt 1.0000 0.1648
vt 0.0001 0.0001
vt 0.6121 0.2520
vt 0.0001 0.9999
vt 0.3460 0.0000
vt 1.0000 0.0000
vt 1.0000 0.1648
vt 0.0001 0.0001
vt 0.0001 0.0001
vt 0.0001 0.8641
vt 0.2765 0.2440
vn -1.0000 0.0000 0.0000
vn 0.0000 0.0000 -1.0000
vn 1.0000 0.0000 0.0000
vn 0.0000 0.0000 1.0000
vn 0.0000 1.0000 0.0000
vn 0.0000 -0.0095 1.0000
s off
f 4/1/1 1/2/1 2/3/1
f 8/4/2 3/5/2 4/6/2
f 6/7/3 7/8/3 8/9/3
f 6/10/4 19/11/4 5/12/4
f 23/13/3 20/14/3 22/15/3
f 4/16/5 2/17/5 17/18/5
f 12/19/1 9/20/1 10/21/1
f 10/22/6 13/23/6 14/24/6
f 15/25/5 10/26/5 14/27/5
f 18/28/4 2/29/4 1/30/4
f 4/1/1 3/31/1 1/2/1
f 8/4/2 7/32/2 3/5/2
f 6/7/3 5/33/3 7/8/3
f 6/10/4 16/34/4 19/11/4
f 23/13/3 21/35/3 20/14/3
f 16/36/5 6/37/5 8/38/5
f 8/38/5 4/16/5 16/36/5
f 17/18/5 16/36/5 4/16/5
f 12/19/1 11/39/1 9/20/1
f 10/22/6 9/40/6 13/23/6
f 15/25/5 12/41/5 10/26/5
f 18/28/4 17/42/4 2/29/4
